<svg width="33" height="22" viewBox="0 0 33 22" fill="none" xmlns="http://www.w3.org/2000/svg">
<path d="M28.6046 6.1985C27.8182 6.91287 26.8011 7.30744 25.7473 7.30687C24.7088 7.30798 23.7048 6.9271 22.9201 6.23439C22.3556 6.50179 21.83 6.84712 21.358 7.26064C21.3825 7.44774 21.3942 7.63638 21.3932 7.82513C21.3932 8.6959 21.171 9.5517 20.7483 10.3086C22.6236 11.2591 24.1394 12.8116 25.0619 14.7266C25.3088 14.7266 25.5658 14.7266 25.7976 14.7266C26.821 14.7279 27.8427 14.6404 28.8515 14.4649V11.576C28.8515 11.3719 28.9312 11.1761 29.0729 11.0318C29.2147 10.8874 29.4069 10.8063 29.6074 10.8063C29.8079 10.8063 30.0002 10.8874 30.142 11.0318C30.2837 11.1761 30.3633 11.3719 30.3633 11.576V14.0955C30.8243 13.9511 31.2661 13.7495 31.6786 13.4951C31.9847 13.3202 32.2375 13.0628 32.4093 12.7511C32.469 12.6264 32.5 12.4895 32.5 12.3508C32.5018 11.4542 32.3296 10.566 31.9932 9.73737C31.6568 8.90873 31.1628 8.15595 30.5397 7.52234C29.9745 6.97072 29.3198 6.52286 28.6046 6.1985Z" fill="#B3A0FF"/>
<path d="M25.7322 5.74693C26.1009 5.7474 26.4662 5.6738 26.8069 5.53027C27.1476 5.38675 27.4571 5.17612 27.7177 4.91054C27.9787 4.64533 28.1857 4.33016 28.3267 3.9832C28.4677 3.63623 28.5399 3.26435 28.5392 2.88887C28.5434 2.50829 28.4728 2.1307 28.3317 1.77825C28.1907 1.42579 27.9819 1.10557 27.7177 0.836374C27.1848 0.315007 26.4712 0.0291181 25.7322 0.041008C25.3584 0.0367388 24.9876 0.108532 24.6414 0.252158C24.2953 0.395783 23.9808 0.608352 23.7165 0.877401C23.4522 1.1466 23.2435 1.46682 23.1024 1.81928C22.9614 2.17173 22.8909 2.54932 22.8951 2.92989C22.8944 3.30538 22.9665 3.67732 23.1075 4.02429C23.2484 4.37125 23.4554 4.68636 23.7165 4.95157C23.9841 5.21322 24.3001 5.41825 24.6461 5.55476C24.9921 5.69128 25.3613 5.75661 25.7322 5.74693Z" fill="#B3A0FF"/>
<path d="M7.20239 14.7472C7.44932 14.7472 7.7063 14.7472 7.93812 14.7472C8.84472 12.8669 10.322 11.3339 12.1511 10.3753C11.7121 9.60722 11.4808 8.73433 11.4808 7.84561C11.4832 7.62255 11.4984 7.39985 11.5262 7.17859C11.068 6.78255 10.5595 6.45115 10.0144 6.19337C9.22625 6.90808 8.20734 7.3026 7.15194 7.30173C6.11502 7.30253 5.11283 6.92167 4.32997 6.22932C3.63873 6.5611 3.00819 7.01053 2.46543 7.55829C1.84165 8.19165 1.34688 8.94427 1.0096 9.77289C0.672323 10.6015 0.499114 11.4898 0.500003 12.3868C0.501747 12.5259 0.53458 12.6627 0.595845 12.787C0.672575 12.9448 0.778623 13.086 0.908222 13.2026C1.3273 13.5699 1.81378 13.849 2.33945 14.0236L2.51575 14.0852V11.612C2.51575 11.4078 2.59545 11.2121 2.73721 11.0677C2.87897 10.9234 3.07118 10.8423 3.27166 10.8423C3.47213 10.8423 3.66447 10.9234 3.80623 11.0677C3.94799 11.2121 4.02756 11.4078 4.02756 11.612V14.4803C5.07589 14.6656 6.13842 14.7549 7.20239 14.7472Z" fill="#B3A0FF"/>
<path d="M7.14707 5.74697C7.51592 5.74829 7.88129 5.67501 8.22212 5.53144C8.56295 5.38786 8.87243 5.17685 9.13256 4.91058C9.39542 4.64648 9.60383 4.33163 9.74574 3.98449C9.88765 3.63735 9.96015 3.26492 9.95896 2.8889C9.96334 2.50785 9.89252 2.12975 9.75054 1.77716C9.60856 1.42456 9.39839 1.10466 9.13256 0.83641C8.87243 0.570142 8.56295 0.359063 8.22212 0.215489C7.88129 0.0719151 7.51592 -0.00129957 7.14707 1.74574e-05C6.77831 -0.0007341 6.41302 0.0727617 6.07227 0.216303C5.73152 0.359845 5.42193 0.570601 5.16147 0.83641C4.89724 1.10561 4.68847 1.42583 4.54742 1.77828C4.40636 2.13074 4.33592 2.50833 4.34011 2.8889C4.33937 3.26439 4.41149 3.63627 4.55246 3.98324C4.69344 4.3302 4.90042 4.64537 5.16147 4.91058C5.42193 5.17639 5.73152 5.38714 6.07227 5.53068C6.41302 5.67423 6.77831 5.74772 7.14707 5.74697Z" fill="#B3A0FF"/>
<path d="M22.2046 13.2231C21.5137 12.5201 20.7025 11.9515 19.8109 11.5453C18.8986 12.4037 17.702 12.8801 16.4598 12.8794C15.2403 12.879 14.0642 12.4183 13.159 11.5863C12.2996 11.9895 11.5166 12.5435 10.8459 13.2231C10.0977 13.9808 9.50449 14.8821 9.10054 15.8747C8.69659 16.8673 8.48992 17.9316 8.49252 19.006C8.4941 19.1842 8.53546 19.3597 8.61345 19.5192C8.71458 19.7133 8.84949 19.8872 9.01159 20.0323C9.52059 20.4754 10.1093 20.8135 10.7451 21.0278L11.249 21.1971V17.9952C11.249 17.7911 11.3286 17.5953 11.4704 17.4509C11.6121 17.3066 11.8045 17.2255 12.0049 17.2255C12.2054 17.2255 12.3976 17.3066 12.5394 17.4509C12.6811 17.5953 12.7608 17.7911 12.7608 17.9952V21.5871C14.0044 21.8178 15.2662 21.9312 16.5303 21.9257C17.7515 21.9269 18.9705 21.8205 20.1737 21.6076V18.0157C20.1737 17.8116 20.2534 17.6158 20.3952 17.4715C20.537 17.3271 20.7292 17.2461 20.9296 17.2461C21.1301 17.2461 21.3225 17.3271 21.4642 17.4715C21.606 17.6158 21.6855 17.8116 21.6855 18.0157V21.2535C22.3342 21.0739 22.955 20.8028 23.5299 20.4479C23.9128 20.2307 24.2287 19.909 24.4421 19.5192C24.5201 19.3597 24.5614 19.1842 24.563 19.006C24.5649 17.9312 24.3575 16.8667 23.9526 15.8741C23.5478 14.8814 22.9537 13.9804 22.2046 13.2231Z" fill="#B3A0FF"/>
<path d="M12.9926 7.83026C12.9915 8.29069 13.08 8.74674 13.253 9.17214C13.426 9.59754 13.68 9.98382 14.0005 10.3086C14.3197 10.6347 14.699 10.8933 15.1168 11.0694C15.5345 11.2455 15.9824 11.3358 16.4346 11.3349C16.8875 11.3362 17.3362 11.2462 17.7548 11.07C18.1734 10.8939 18.5536 10.6351 18.8735 10.3086C19.194 9.98382 19.4482 9.59754 19.6212 9.17214C19.7942 8.74674 19.8826 8.29069 19.8814 7.83026C19.8826 7.36984 19.7942 6.91372 19.6212 6.48833C19.4482 6.06293 19.194 5.67664 18.8735 5.35184C18.2261 4.69432 17.349 4.32523 16.4346 4.32559C15.5218 4.32603 14.6464 4.6951 14.0005 5.35184C13.68 5.67664 13.426 6.06293 13.253 6.48833C13.08 6.91372 12.9915 7.36984 12.9926 7.83026Z" fill="#B3A0FF"/>
</svg>
