<svg width="32" height="32" viewBox="0 0 32 32" fill="none" xmlns="http://www.w3.org/2000/svg">
<path d="M17.3188 18.8271C17.318 17.795 17.5186 16.7728 17.909 15.8191C18.2995 14.8653 18.8721 13.9988 19.5942 13.269C20.3164 12.5391 21.1739 11.9603 22.1176 11.5657C23.0612 11.1711 24.0726 10.9685 25.0938 10.9693C25.561 10.9716 26.0271 11.0159 26.4865 11.1019C26.2957 10.7871 26.0872 10.4836 25.862 10.193C23.8011 7.66837 20.1978 5.72447 17.3126 8.17964C17.0552 8.41135 16.8112 8.65793 16.582 8.91811C15.9386 9.75284 15.3917 10.6591 14.952 11.6194C14.8991 11.7317 14.8249 11.8324 14.7335 11.9158C14.6421 11.9991 14.5354 12.0634 14.4194 12.1051C14.3034 12.1467 14.1804 12.1647 14.0574 12.1583C13.9345 12.1518 13.8141 12.1211 13.703 12.0675C13.5918 12.0141 13.4922 11.9391 13.4098 11.8467C13.3273 11.7544 13.2636 11.6465 13.2224 11.5292C13.1812 11.412 13.1634 11.2877 13.1698 11.1635C13.1762 11.0393 13.2066 10.9175 13.2596 10.8052C13.3158 10.6853 13.372 10.578 13.4345 10.4644C11.8656 10.4161 10.3116 10.1419 8.81933 9.65018C7.69631 9.26878 6.64183 8.70608 5.69683 7.98394C4.7443 8.56912 3.89916 9.31649 3.19883 10.193C0.538455 13.4876 0.532223 17.6216 1.8062 21.5536V21.642C3.10516 25.5741 5.82181 30.7748 10.1496 31.854C10.873 32.0213 11.6244 32.0213 12.3478 31.854C13.1784 31.6773 13.8466 31.0588 14.7521 31.1661C15.4203 31.2418 16.0011 31.6836 16.6256 31.8603C17.3552 32.0466 18.1192 32.0466 18.8488 31.8603C21.4218 31.2292 23.4201 29.1211 24.9002 26.6975C22.8687 26.6496 20.9367 25.7985 19.5192 24.327C18.1017 22.8555 17.3117 20.8808 17.3188 18.8271Z" fill="#B3A0FF"/>
<path d="M8.22604 7.32763C9.92901 8.13663 11.7838 8.56707 13.6654 8.58992C13.5548 7.96904 13.3855 7.36034 13.1597 6.77221C12.3833 4.69014 10.9299 2.93646 9.03792 1.79876C7.35211 0.814095 5.4792 0.201093 3.54229 0C3.62477 1.00889 3.8542 1.9999 4.22305 2.9411C4.96536 4.8592 6.39424 6.42506 8.22604 7.32763Z" fill="#B3A0FF"/>
<path d="M29.2904 23.0243C29.8391 22.4712 30.2743 21.814 30.5711 21.0905C30.868 20.367 31.0206 19.5914 31.0203 18.8082C31.0211 18.024 30.8688 17.2473 30.5719 16.5228C30.2751 15.7982 29.8395 15.14 29.2904 14.5859C28.743 14.0319 28.0926 13.5928 27.3767 13.2939C26.6607 12.9949 25.8934 12.842 25.1188 12.8439C24.3432 12.8419 23.5749 12.9947 22.8579 13.2937C22.1409 13.5926 21.4895 14.0318 20.9409 14.5859C20.3859 15.1404 19.9455 15.801 19.6453 16.5291C19.3451 17.2572 19.1911 18.0384 19.1923 18.8272C19.1912 19.6099 19.3428 20.3852 19.6386 21.1087C19.9343 21.8321 20.3684 22.4896 20.9159 23.0433C21.4642 23.5982 22.1155 24.0383 22.8324 24.3383C23.5494 24.6383 24.3178 24.7923 25.0938 24.7915C25.8743 24.793 26.6473 24.6375 27.3678 24.3341C28.0883 24.0307 28.7419 23.5855 29.2904 23.0243ZM24.7753 21.295C24.6094 21.478 24.379 21.5878 24.1337 21.6008C23.8884 21.6138 23.6479 21.5289 23.4639 21.3644L21.9275 20.0011C21.7415 19.8347 21.628 19.6008 21.6116 19.3502C21.5953 19.0997 21.6774 18.8527 21.8402 18.663C22.0048 18.475 22.2363 18.3603 22.4842 18.3438C22.7321 18.3272 22.9765 18.4102 23.1642 18.5747L24.0134 19.3321L27.0797 15.9617C27.1624 15.8703 27.2621 15.7963 27.3732 15.744C27.4842 15.6916 27.6045 15.6619 27.7269 15.6566C27.8493 15.6513 27.9716 15.6706 28.0867 15.7132C28.2018 15.7558 28.3074 15.821 28.3974 15.9049C28.4881 15.989 28.5614 16.0904 28.6133 16.2032C28.6652 16.3159 28.6946 16.4379 28.6998 16.5622C28.705 16.6865 28.6861 16.8105 28.6438 16.9273C28.6016 17.0441 28.537 17.1514 28.4537 17.243L24.7753 21.295Z" fill="#B3A0FF"/>
</svg>
