<svg width="11" height="13" viewBox="0 0 11 13" fill="none" xmlns="http://www.w3.org/2000/svg">
<path d="M3.79287 0.663962L8.99555 4.20323C9.33435 4.43385 9.60905 4.73159 9.79815 5.07315C9.98726 5.41471 10.0857 5.79085 10.0857 6.17216C10.0857 6.55346 9.98726 6.92953 9.79815 7.27109C9.60905 7.61265 9.33435 7.9104 8.99555 8.14102L3.79287 11.6833C3.463 11.9068 3.07023 12.0434 2.65852 12.0778C2.2468 12.1122 1.83239 12.043 1.46213 11.878C1.09186 11.713 0.780306 11.4587 0.562388 11.1438C0.34447 10.8288 0.228823 10.4656 0.228516 10.095V2.24929C0.228193 1.87847 0.343502 1.5149 0.561409 1.19967C0.779316 0.884446 1.09119 0.630088 1.4618 0.465247C1.83242 0.300406 2.24713 0.23164 2.65901 0.266752C3.07089 0.301864 3.46357 0.439455 3.79287 0.663962Z" fill="white"/>
</svg>
