<svg width="30" height="32" viewBox="0 0 30 32" fill="none" xmlns="http://www.w3.org/2000/svg">
<path d="M24.9195 26.2714C24.2775 26.4342 23.6179 26.5185 22.9555 26.5222C20.8293 26.5222 18.7902 25.6789 17.2867 24.1777C15.7832 22.6766 14.9386 20.6405 14.9386 18.5176C14.9378 17.4662 15.1446 16.425 15.5472 15.4535C15.9498 14.4819 16.5402 13.5992 17.2848 12.8557C18.0294 12.1122 18.9136 11.5227 19.8866 11.1207C20.8597 10.7188 21.9025 10.5123 22.9555 10.5131C23.6181 10.5137 24.2781 10.5979 24.9195 10.7639V5.71044C24.921 5.04814 24.6592 4.41229 24.1918 3.94238C23.9597 3.70954 23.6837 3.52492 23.3798 3.39912C23.0759 3.27332 22.75 3.20883 22.421 3.20943H20.5923C20.5923 3.20943 20.5923 3.20939 20.5923 3.2544V5.78116C20.5805 6.42178 20.315 7.03163 19.8541 7.47741C19.3931 7.92319 18.7742 8.16858 18.1325 8.15998H7.97774C7.65977 8.16508 7.34387 8.10764 7.04816 7.99085C6.75245 7.87405 6.48268 7.7002 6.25425 7.47929C6.02583 7.25839 5.84326 6.99479 5.71691 6.70341C5.59056 6.41204 5.52292 6.09863 5.51789 5.78116V3.2544C5.51789 3.2544 5.51789 3.25443 5.51789 3.20943H3.46379C3.13468 3.20812 2.80853 3.27226 2.50451 3.3981C2.20048 3.52394 1.92465 3.70896 1.69299 3.94238C1.22319 4.41124 0.959205 5.04722 0.958984 5.71044V29.499C0.959205 30.1622 1.22319 30.7982 1.69299 31.267C1.92465 31.5004 2.20048 31.6855 2.50451 31.8113C2.80853 31.9371 3.13468 32.0013 3.46379 32H22.4081C22.7371 32.0006 23.063 31.9361 23.3669 31.8103C23.6708 31.6845 23.9468 31.4999 24.1789 31.267C24.6464 30.7971 24.9081 30.1613 24.9066 29.499L24.9195 26.2714ZM4.38457 10.5131H14.1208C14.377 10.5131 14.6226 10.6147 14.8037 10.7956C14.9849 10.9765 15.0867 11.2218 15.0867 11.4775C15.0867 11.7333 14.9849 11.9786 14.8037 12.1595C14.6226 12.3403 14.377 12.4419 14.1208 12.4419H4.38457C4.1284 12.4419 3.88279 12.3403 3.70165 12.1595C3.52051 11.9786 3.41868 11.7333 3.41868 11.4775C3.42373 11.2251 3.52782 10.9848 3.70841 10.8081C3.88901 10.6314 4.13171 10.5324 4.38457 10.5324V10.5131ZM4.38457 16.9939H9.2527C9.50887 16.9939 9.75463 17.0955 9.93577 17.2764C10.1169 17.4573 10.2186 17.7025 10.2186 17.9583C10.2186 18.214 10.1169 18.4593 9.93577 18.6402C9.75463 18.8211 9.50887 18.9227 9.2527 18.9227H4.38457C4.1284 18.9227 3.88279 18.8211 3.70165 18.6402C3.52051 18.4593 3.41868 18.214 3.41868 17.9583C3.42373 17.7059 3.52782 17.4655 3.70841 17.2888C3.88901 17.1121 4.13171 17.0131 4.38457 17.0132V16.9939ZM14.1208 25.4035H4.38457C4.1284 25.4035 3.88279 25.3019 3.70165 25.121C3.52051 24.9402 3.41868 24.6949 3.41868 24.4391C3.41868 24.1833 3.52051 23.938 3.70165 23.7571C3.88279 23.5763 4.1284 23.4747 4.38457 23.4747H14.1208C14.377 23.4747 14.6226 23.5763 14.8037 23.7571C14.9849 23.938 15.0867 24.1833 15.0867 24.4391C15.0893 24.5673 15.0662 24.6948 15.0188 24.8141C14.9714 24.9333 14.9006 25.0419 14.8107 25.1335C14.7207 25.2251 14.6135 25.2979 14.495 25.3475C14.3765 25.3972 14.2493 25.4228 14.1208 25.4228V25.4035Z" fill="#B3A0FF"/>
<path d="M8.40267 2.48289C8.16998 2.46687 7.94039 2.54284 7.7633 2.6944C7.58621 2.84596 7.47584 3.06094 7.45612 3.29299V5.81967C7.46761 5.94877 7.52938 6.06829 7.6281 6.15244C7.72683 6.23659 7.85468 6.2787 7.98418 6.26977H18.1389C18.2684 6.2787 18.3963 6.23659 18.495 6.15244C18.5937 6.06829 18.6555 5.94877 18.667 5.81967V3.29299C18.6473 3.06094 18.5369 2.84596 18.3598 2.6944C18.1827 2.54284 17.953 2.46687 17.7203 2.48289C17.4866 2.49884 17.2561 2.42201 17.0789 2.2691C16.9016 2.11619 16.7919 1.89955 16.7737 1.66635V0.451198C16.7638 0.322651 16.7035 0.203201 16.6058 0.118901C16.5081 0.0346015 16.3811 -0.00768389 16.2523 0.00117669H9.87085C9.74135 -0.00774822 9.61349 0.0343607 9.51477 0.118509C9.41604 0.202657 9.35427 0.322102 9.34278 0.451198V1.66635C9.32627 1.899 9.21813 2.11564 9.04188 2.26871C8.86564 2.42178 8.63572 2.49879 8.40267 2.48289Z" fill="#B3A0FF"/>
<path d="M27.2569 22.8318C27.8238 22.2691 28.2733 21.5999 28.5795 20.8627C28.8857 20.1255 29.0423 19.335 29.0406 18.5369C29.0428 17.7379 28.8863 16.9463 28.5801 16.208C28.274 15.4697 27.8242 14.7994 27.2569 14.2358C26.6929 13.6709 26.0224 13.2233 25.2841 12.9187C24.5458 12.6142 23.7543 12.4587 22.9555 12.4613C22.1568 12.4594 21.3656 12.6151 20.6274 12.9197C19.8892 13.2242 19.2186 13.6715 18.6541 14.2358C18.0879 14.8002 17.6389 15.4707 17.3328 16.2088C17.0267 16.9469 16.8696 17.7381 16.8704 18.5369C16.8701 19.3348 17.0275 20.1248 17.3336 20.8618C17.6396 21.5988 18.0884 22.2683 18.6541 22.8318C19.2183 23.3969 19.8886 23.8451 20.6268 24.1507C21.365 24.4564 22.1564 24.6134 22.9555 24.6127C23.7547 24.6141 24.5463 24.4574 25.2846 24.1518C26.0228 23.8461 26.6932 23.3975 27.2569 22.8318ZM26.4006 16.9425L22.6013 21.0701C22.4313 21.2562 22.1948 21.3678 21.9429 21.3811C21.6911 21.3943 21.4441 21.308 21.2554 21.1408L19.6714 19.7521C19.5749 19.6691 19.4961 19.5678 19.4392 19.454C19.3824 19.3402 19.3487 19.2163 19.3403 19.0895C19.3319 18.9626 19.3489 18.8353 19.3903 18.7151C19.4317 18.5948 19.4966 18.484 19.5813 18.3891C19.75 18.198 19.9875 18.0813 20.2421 18.0644C20.4966 18.0475 20.7475 18.1319 20.9399 18.2991L21.8157 19.0706L24.9774 15.6373C25.0632 15.544 25.1667 15.4685 25.2817 15.415C25.3968 15.3616 25.5212 15.3313 25.648 15.326C25.7748 15.3206 25.9013 15.3402 26.0205 15.3837C26.1396 15.4272 26.2491 15.4937 26.3426 15.5795C26.436 15.6651 26.5117 15.7684 26.5652 15.8833C26.6187 15.9981 26.6489 16.1224 26.6543 16.249C26.6597 16.3756 26.64 16.5019 26.5965 16.6209C26.5529 16.7399 26.4864 16.8492 26.4006 16.9425Z" fill="#B3A0FF"/>
</svg>
